<mxfile host="app.diagrams.net" modified="2023-03-01T05:42:41.904Z" agent="5.0 (Windows NT 10.0; Win64; x64) AppleWebKit/537.36 (KHTML, like Gecko) Chrome/110.0.0.0 Safari/537.36" etag="k7QO-HcbERrBPAnp_ePh" version="20.8.17" type="github">
  <diagram name="Page-1" id="pqvJEdWj4I0oVBBO52Y4">
    <mxGraphModel dx="1674" dy="764" grid="1" gridSize="10" guides="1" tooltips="1" connect="1" arrows="1" fold="1" page="1" pageScale="1" pageWidth="1920" pageHeight="1200" math="0" shadow="0">
      <root>
        <mxCell id="0" />
        <mxCell id="1" parent="0" />
        <mxCell id="6XwKAL-kYGDviJ1i32qL-1" value="" style="endArrow=none;dashed=1;html=1;rounded=0;" edge="1" parent="1">
          <mxGeometry width="50" height="50" relative="1" as="geometry">
            <mxPoint x="800" y="600" as="sourcePoint" />
            <mxPoint x="799.5" y="140" as="targetPoint" />
          </mxGeometry>
        </mxCell>
        <mxCell id="6XwKAL-kYGDviJ1i32qL-3" value="&lt;u&gt;Mosaic Specific Business Logic Classes&lt;/u&gt;" style="text;html=1;strokeColor=none;fillColor=none;align=center;verticalAlign=middle;whiteSpace=wrap;rounded=0;" vertex="1" parent="1">
          <mxGeometry x="480" y="160" width="190" height="30" as="geometry" />
        </mxCell>
        <mxCell id="6XwKAL-kYGDviJ1i32qL-5" value="Mosaic Business Logic Layer" style="rounded=0;whiteSpace=wrap;html=1;" vertex="1" parent="1">
          <mxGeometry x="410" y="60" width="780" height="60" as="geometry" />
        </mxCell>
        <mxCell id="6XwKAL-kYGDviJ1i32qL-6" value="" style="endArrow=none;dashed=1;html=1;rounded=0;" edge="1" parent="1">
          <mxGeometry width="50" height="50" relative="1" as="geometry">
            <mxPoint x="410" y="610" as="sourcePoint" />
            <mxPoint x="410" y="140" as="targetPoint" />
          </mxGeometry>
        </mxCell>
        <mxCell id="6XwKAL-kYGDviJ1i32qL-7" value="" style="endArrow=none;dashed=1;html=1;rounded=0;" edge="1" parent="1">
          <mxGeometry width="50" height="50" relative="1" as="geometry">
            <mxPoint x="1190" y="600" as="sourcePoint" />
            <mxPoint x="1190" y="137" as="targetPoint" />
          </mxGeometry>
        </mxCell>
        <mxCell id="6XwKAL-kYGDviJ1i32qL-8" value="&lt;u&gt;External Service Utility Classes&lt;/u&gt;" style="text;html=1;strokeColor=none;fillColor=none;align=center;verticalAlign=middle;whiteSpace=wrap;rounded=0;" vertex="1" parent="1">
          <mxGeometry x="900" y="160" width="190" height="30" as="geometry" />
        </mxCell>
        <mxCell id="6XwKAL-kYGDviJ1i32qL-9" value="External &lt;br&gt;Services" style="rounded=0;whiteSpace=wrap;html=1;" vertex="1" parent="1">
          <mxGeometry x="1300" y="300" width="120" height="60" as="geometry" />
        </mxCell>
        <mxCell id="6XwKAL-kYGDviJ1i32qL-10" value="" style="endArrow=classic;startArrow=classic;html=1;rounded=0;" edge="1" parent="1">
          <mxGeometry width="50" height="50" relative="1" as="geometry">
            <mxPoint x="1200" y="330" as="sourcePoint" />
            <mxPoint x="1290" y="329.5" as="targetPoint" />
          </mxGeometry>
        </mxCell>
        <mxCell id="6XwKAL-kYGDviJ1i32qL-11" value="API" style="text;html=1;strokeColor=none;fillColor=none;align=center;verticalAlign=middle;whiteSpace=wrap;rounded=0;" vertex="1" parent="1">
          <mxGeometry x="1200" y="300" width="80" height="30" as="geometry" />
        </mxCell>
        <mxCell id="6XwKAL-kYGDviJ1i32qL-12" value="try {&lt;br&gt;&lt;br&gt;&amp;nbsp; // invoke external service&lt;br&gt;&lt;br&gt;catch (Exception e) {&lt;br&gt;&lt;br&gt;&amp;nbsp; &amp;nbsp; log.error(&quot;External connection failed&quot;, e);&lt;br&gt;&amp;nbsp;&lt;br&gt;&amp;nbsp; &amp;nbsp; throw new ExternalConnectivityException();&lt;br&gt;}" style="text;html=1;strokeColor=none;fillColor=none;align=left;verticalAlign=middle;whiteSpace=wrap;rounded=0;" vertex="1" parent="1">
          <mxGeometry x="835" y="210" width="320" height="190" as="geometry" />
        </mxCell>
      </root>
    </mxGraphModel>
  </diagram>
</mxfile>
